<svg xmlns="http://www.w3.org/2000/svg" width="240" height="240" viewBox="0 0 240 240">
  <defs><radialGradient id="golge16" cx="0.5" cy="0.5" r="0.5">
        <stop offset="0" stop-color="#000000" stop-opacity="0.16"/>
        <stop offset="0.7" stop-color="#000000" stop-opacity="0.07"/>
        <stop offset="1" stop-color="#000000" stop-opacity="0"/>
    </radialGradient></defs>
  <ellipse cx="120" cy="174" rx="74" ry="8" fill="url(#golge16)"/>
  <path d="M 50 108
        Q 120 166 190 108
        L 184 104
        Q 120 154 56 104
        Z" fill="#F5F0E6" stroke="#00000022" stroke-width="2.5" stroke-linejoin="round"/>
  <ellipse cx="66.28752284683287" cy="100.38908530306071" rx="10.88453816389665" ry="8.163403622922488" fill="#DC7C6A"/>
  <ellipse cx="141.89315762836486" cy="88.44242301816121" rx="8.027608440257609" ry="6.020706330193207" fill="#C4544A"/>
  <ellipse cx="116.2855895771645" cy="95.76194516615942" rx="8.76662801974453" ry="6.574971014808398" fill="#B03A35"/>
  <ellipse cx="145.28042988851666" cy="95.29679541336372" rx="6.779741819715127" ry="5.0848063647863455" fill="#DC7C6A"/>
  <ellipse cx="149.04988752212375" cy="88.5215338114649" rx="6.985686300555244" ry="5.239264725416433" fill="#C4544A"/>
  <ellipse cx="105.4754452756606" cy="94.37556921411306" rx="8.673697627615184" ry="6.505273220711388" fill="#B03A35"/>
  <ellipse cx="97.59632730623707" cy="76.57340128347278" rx="7.237667971290648" ry="5.428250978467986" fill="#DC7C6A"/>
  <ellipse cx="161.55575551092625" cy="97.03941555693746" rx="6.718286930350587" ry="5.03871519776294" fill="#C4544A"/>
  <ellipse cx="82.01084331609309" cy="94.43526845937595" rx="8.739507157821208" ry="6.554630368365906" fill="#B03A35"/>
  <ellipse cx="148.80610645748675" cy="100.06252965703607" rx="10.564703539945185" ry="7.923527654958889" fill="#DC7C6A"/>
  <ellipse cx="125.90818227734417" cy="85.83775431849062" rx="9.400454538641497" ry="7.050340903981123" fill="#C4544A"/>
  <ellipse cx="171.25886741559952" cy="85.76610325137153" rx="10.606024300446734" ry="7.95451822533505" fill="#B03A35"/>
  <ellipse cx="156.03913326514885" cy="100.96055967826396" rx="6.874707734910771" ry="5.156030801183078" fill="#DC7C6A"/>
  <ellipse cx="104.26791155477986" cy="90.9417911642231" rx="6.100880571408197" ry="4.575660428556148" fill="#C4544A"/>
  <ellipse cx="74.69168587820604" cy="82.03158775204793" rx="7.844846525928006" ry="5.883634894446004" fill="#B03A35"/>
  <ellipse cx="111.93872740492225" cy="89.81477166665718" rx="10.731105853570625" ry="8.048329390177969" fill="#DC7C6A"/>
</svg>